<svg width="192" height="192" viewBox="0 0 192 192" fill="none" xmlns="http://www.w3.org/2000/svg">
<circle cx="96" cy="96" r="94.7924" transform="matrix(-1 0 0 1 192 0)" stroke="black" stroke-width="2.41509"/>
<path d="M125.509 87.5059C127.339 90.6697 120.261 94.7556 116.34 90.8271C112.097 86.5537 123.553 84.1322 125.509 87.5059Z" fill="#B6DCD1"/>
<path d="M161.645 114.166C161.03 110.912 160.978 110.418 163.969 112.292C168.677 110.365 164.517 113.244 167.223 116.303C164.824 116.783 164.674 116.655 163.332 118.874C161.233 115.658 162.545 117.322 159.299 115.875C159.081 115.231 161.45 114.691 161.645 114.166Z" fill="#B6DCD1"/>
<path d="M43.0629 114.413C41.6984 110.665 41.3086 108.671 47.2613 111.092C49.8253 109.098 51.1598 108.333 51.3173 112.869C55.0658 115.118 54.616 116.003 50.9124 116.917C50.2227 123.162 47.7711 121.963 46.0468 118.229C41.3311 119.354 39.7717 119.241 43.0629 114.413Z" fill="#B6DCD1"/>
<path d="M87.431 81.8002C87.431 77.6543 94.9282 81.118 94.2834 83.9744C93.5337 87.3931 87.431 85.7962 87.431 81.8002Z" fill="#B6DCD1"/>
<path d="M137.339 145.669C137.871 140.953 138.636 141.92 141.26 144.709C145.406 144.409 144.881 145.189 142.85 147.955C142.85 149.042 144.349 150.489 143.599 151.172C140.053 150.587 140.66 150.639 137.602 152.783C135.877 148.668 138.809 150.654 134.003 147.535C134.033 146.621 136.927 146.343 137.339 145.669Z" fill="#B6DCD1"/>
<path d="M142.122 49.8629C149.507 53.724 154.635 62.3982 151.306 78.3521C149.387 87.5436 163.099 102.463 145.309 106.032C146.231 101.593 146.343 92.1018 136.042 90.5949C134.018 92.0943 133.223 95.2581 130.749 95.0407C143.599 68.8007 110.064 68.3584 104.914 53.6715C97.7167 67.916 75.4277 53.4541 85.3014 86.1791C52.5164 45.4396 112.494 4.37027 142.122 49.8629ZM117.966 54.4062C118.221 56.0931 120.216 56.8353 123.05 57.6225C125.891 63.6202 128.785 63.5527 130.502 57.7949C136.994 58.732 137.924 54.796 132.571 50.6576C134.033 46.2418 131.446 44.7049 127.285 46.6167C123.297 43.8952 120.598 45.3946 121.595 49.8704C118.821 51.6922 117.742 53.0267 117.966 54.4062Z" fill="#B6DCD1"/>
<path d="M49.9303 147.731C55.1783 148.481 52.1795 148.256 56.1679 146.329C56.7827 146.576 56.5878 149.44 56.9701 149.793C60.9661 151.045 59.5716 151.877 56.8577 153.129C56.9177 157.874 55.2008 156.682 53.5215 153.601C52.7343 153.361 49.9678 154.816 49.4955 154.051C51.0174 148.983 51.5722 153.429 49.9303 147.731Z" fill="#B6DCD1"/>
<path d="M82.7302 154.141C83.0601 153.331 81.9056 150.46 83.2026 150.205C89.7626 155.22 92.454 147.251 90.6472 155.94C93.886 160.183 93.7061 160.093 88.608 160.221C87.7608 160.843 86.8312 164.202 85.4217 163.864C82.9027 155.977 84.792 160.453 78.8242 157.035C78.8467 155.88 82.2504 155.288 82.7302 154.141Z" fill="#B6DCD1"/>
<path d="M123.372 51.3473C124.527 50.5976 123.305 48.4385 123.664 47.4113C123.927 47.4113 124.699 47.6138 126.663 48.7758C126.81 48.8648 126.975 48.9179 127.145 48.9309C127.316 48.944 127.487 48.9165 127.645 48.8508C130.164 47.8012 130.734 48.0186 130.794 48.0186C130.854 48.0186 130.937 48.5359 130.262 50.7251C130.197 50.9366 130.198 51.1627 130.263 51.3739C130.329 51.5852 130.456 51.7719 130.629 51.9096C133.883 54.5036 133.861 55.5158 133.861 55.5158C128.305 56.4004 130.06 53.2666 127.173 59.8716C126.611 59.9541 125.824 57.1801 124.099 55.6207C123.185 55.3733 120.403 54.6236 120.141 54.0538C120.148 54.0613 120.283 53.3566 123.372 51.3473Z" fill="#B6DCD1"/>
<path d="M108.086 153.818C108.417 153.625 108.735 153.41 109.038 153.174C108.963 151.472 107.103 148.12 109.18 147.228C110.822 146.411 113.184 148.81 114.841 149.702C120.366 145.377 121.985 146.419 120.591 153.174C124.969 157.065 123.32 159.006 117.907 159.059C117.112 160.491 116.797 163.01 114.728 163.047C114.554 163.048 114.383 163.007 114.228 162.929C114.073 162.851 113.939 162.737 113.836 162.597C112.936 161.353 112.381 160.513 111.984 159.891C110.92 158.264 111.647 159.231 106.736 157.837C106.55 157.779 106.383 157.673 106.251 157.529C106.119 157.386 106.028 157.21 105.986 157.02C105.604 155.363 107.096 154.433 108.086 153.818ZM110.792 156.532C113.169 156.75 113.536 158.474 114.945 160.371C116.655 155.813 116.722 157.252 120.733 156.547C120.124 155.755 119.433 155.028 118.672 154.381C117.922 153.751 118.672 152.551 118.896 149.567C114.046 152.859 115.56 152.701 110.447 149.455C111.309 152.904 112.187 154.178 108.64 156.075C109.615 156.315 110.297 156.442 110.792 156.532Z" fill="#282628"/>
<path d="M60.254 133.733C59.6917 131.867 56.7678 128.261 58.837 127.121C60.3364 126.109 63.0804 128.051 64.8347 128.56C70.4576 124.572 72.3919 125.359 71.7096 131.979C77.4974 135.915 74.8284 137.692 69.4605 138.637C68.8532 140.428 69.0331 143.885 66.844 144.139C66.6947 144.155 66.5439 144.139 66.4008 144.094C66.2577 144.049 66.1253 143.975 66.0118 143.877C61.4685 140.009 64.6548 140.308 59.2119 140.181C58.7021 140.114 57.3151 140.308 56.9627 139.844C54.6911 137.415 59.2644 135.083 60.254 133.733ZM59.2644 137.984C65.0671 137.984 63.7027 138.599 66.5966 141.463C67.6462 135.54 67.5487 137.122 72.5418 135.548C71.7448 134.743 70.8566 134.033 69.8953 133.434C69.737 133.322 69.6102 133.172 69.5274 132.997C69.4446 132.823 69.4087 132.629 69.423 132.436C69.5809 131.08 69.611 129.712 69.5129 128.35C64.5798 130.6 66.5666 131.942 60.5164 129.16C63.2153 134.506 63.3728 134.033 58.9195 137.969L59.2644 137.984Z" fill="#282628"/>
<path d="M152.858 124.962C156.187 121.963 157.844 123.65 157.356 127.916C158.563 128.665 160.798 129.25 160.318 131.012C159.838 132.774 157.874 132.451 156.569 132.676C156.254 133.831 156.389 135.795 154.463 135.915C154.283 135.923 154.105 135.886 153.944 135.808C153.783 135.729 153.644 135.611 153.54 135.465C152.386 133.846 151.914 133.059 150.646 133.156C150.069 133.029 148.712 133.269 148.195 132.564C147.175 130.952 148.885 129.925 149.619 128.943C148.06 125.554 149.177 123.665 152.858 124.962ZM154.358 132.804C154.493 131.064 155.73 130.36 157.356 130.39C154.493 129.19 155.25 128.38 155.197 125.891C154.74 126.064 153.698 127.563 152.768 127.203C152.262 127.028 151.746 126.881 151.224 126.761C151.374 127.256 151.651 127.983 151.861 128.56C152.153 129.468 151.366 130.307 150.796 130.922C152.618 131.124 153.068 131.154 154.328 132.804H154.358Z" fill="#282628"/>
<path d="M32.7094 110.927C33.9198 106.718 34.7775 102.414 35.2735 98.0622C40.1691 92.7617 34.7412 111.692 34.8011 111.497C32.0497 121.731 31.4724 123.867 55.0434 131.477C55.3006 131.582 55.5087 131.78 55.6259 132.032C55.7431 132.284 55.7608 132.571 55.6755 132.836C55.5902 133.1 55.4082 133.322 55.1659 133.458C54.9235 133.594 54.6388 133.634 54.3687 133.569C29.7781 125.614 29.5756 122.563 32.7094 110.927Z" fill="#282628"/>
<path d="M25.0994 119.931C26.8238 113.056 29.4553 100.034 31.8094 94.4408C36.3676 88.4431 45.1168 86.8537 51.6243 89.1478C56.6249 82.3329 64.7668 77.6022 71.5292 73.2014C56.7524 34.846 115.987 11.5224 141.155 42.4631C151.479 53.3489 167.853 51.3247 161.832 78.6368C159.936 91.292 167.08 106.871 145.564 111.009C144.124 120.516 140.376 127.968 134.37 133.141C120.418 145.549 94.6879 141.32 89.9497 126.221C87.5057 125.022 86.0512 123.342 85.6164 121.198C80.6608 122.368 75.3303 122.915 75.3378 118.649C75.8926 115.808 81.5304 113.454 85.7288 112.202C84.9791 105.312 98.1516 100.506 102.417 106.661C108.243 105.102 111.894 107.306 108.85 112.284C112.891 113.626 115.478 110.522 116.79 106.211C116.875 105.933 117.065 105.7 117.32 105.56C117.574 105.42 117.874 105.384 118.154 105.462C119.781 106.076 118.386 108.108 118.049 109.143C127.39 106.894 137.542 115.283 138.576 124.827C140.289 121.953 141.579 118.847 142.407 115.605C143.445 111.939 144.059 108.166 144.237 104.36C144.342 98.5567 141.987 92.3641 135.735 91.6818C122.023 107.426 98.9988 99.2615 83.0898 86.5838C74.843 93.961 70.4646 101.113 70.0523 107.846C70.0352 108.125 69.9126 108.387 69.7093 108.579C69.5061 108.771 69.2374 108.879 68.9577 108.88C66.1313 107.606 69.4076 101.436 70.3747 98.8266C68.7103 95.123 63.6273 86.8312 57.1497 86.2164C55.9018 87.3717 54.7485 88.6253 53.701 89.965C59.2039 92.7464 62.3752 97.9645 62.0678 103.685C65.2466 106.684 65.3141 110.155 65.3816 114.683C64.6694 116.055 67.4733 126.326 65.1567 126.041C64.9012 126.041 64.6539 125.951 64.4569 125.789C64.26 125.626 64.1257 125.4 64.0771 125.149C61.2956 114.751 67.6757 106.481 54.4807 101.908C48.633 106.099 37.7846 104.12 40.3711 95.6628C38.6992 95.0256 34.5758 93.4887 33.8411 95.2655C32.0493 99.5838 29.7926 109.465 28.4432 115.373C22.7828 128.208 35.9403 130.03 53.1387 136.072C53.2864 136.077 53.4318 136.11 53.5665 136.171C53.7013 136.232 53.8228 136.318 53.9241 136.426C54.0254 136.533 54.1045 136.66 54.1569 136.798C54.2093 136.936 54.234 137.083 54.2296 137.231C54.2252 137.378 54.1917 137.524 54.1311 137.659C54.0705 137.793 53.9839 137.915 53.8764 138.016C53.7688 138.117 53.6423 138.196 53.5042 138.249C53.3661 138.301 53.219 138.326 53.0713 138.322C37.8896 133.703 22.333 128.733 25.0994 119.931ZM83.4272 115.305C79.0339 117.09 77.377 118.417 77.5794 119.241C78.3292 119.886 81.0281 120.163 85.0016 119.091C83.8171 118.117 82.9474 116.767 83.4272 115.305ZM87.9255 111.444C91.944 109.945 96.6522 108.213 100.003 107.283C96.2623 104.127 88.1579 107.516 87.903 111.444H87.9255ZM107.673 108.745C106.174 106.969 94.5755 111.339 90.2571 112.929C95.5801 113.926 100.956 116.01 106.458 111.984C107.808 109.915 107.845 108.955 107.673 108.745ZM115.98 112.314C114.944 113.527 113.528 114.354 111.962 114.659C110.396 114.964 108.773 114.729 107.358 113.993C99.1112 120.223 89.125 112.449 85.6164 115.725C85.0091 117.869 91.0593 119.826 92.4688 120.111C92.739 120.155 92.9831 120.298 93.1535 120.513C93.324 120.727 93.4085 120.997 93.3908 121.27C93.373 121.543 93.2541 121.8 93.0574 121.991C92.8606 122.181 92.6 122.291 92.3263 122.3C90.7462 122.027 89.2152 121.522 87.7831 120.801C88.2929 123.05 90.5495 124.587 94.6279 125.464C94.8884 125.526 95.1176 125.68 95.2726 125.898C95.4277 126.116 95.498 126.384 95.4704 126.65C95.4429 126.916 95.3194 127.163 95.1229 127.345C94.9265 127.527 94.6706 127.631 94.403 127.638C93.7833 127.543 93.1717 127.4 92.5737 127.211C99.2162 140.391 123.672 143.33 136.597 127.653C137.144 117.375 125.149 107.246 115.98 112.306V112.314ZM143.577 93.9085C146.471 97.9794 146.883 104.082 146.043 108.7C164.869 104.877 157.521 89.845 159.726 78.0745C164.224 61.191 156.209 53.9712 148.727 50.8824C138.081 45.6344 137.482 38.2047 124.054 33.0617C94.2906 18.3373 51.9467 55.6881 80.7057 81.7931C71.5592 53.9937 92.2214 65.007 104.322 51.2572C112.846 65.7042 147.858 65.3819 136.859 89.6126C138.208 89.8476 139.496 90.3483 140.65 91.0858C141.803 91.8234 142.798 92.7828 143.577 93.9085ZM84.0045 84.4696C131.709 123.5 159.801 66.424 112.329 66.1091C112.05 66.102 111.784 65.9895 111.585 65.794C111.386 65.5986 111.268 65.335 111.256 65.0562C111.243 64.7775 111.337 64.5044 111.518 64.2921C111.699 64.0798 111.954 63.9441 112.231 63.9124C112.389 63.9124 114.48 63.815 117.389 63.9874C111.984 61.4684 106.781 58.6869 104.074 54.406C101.698 57.3074 98.6539 58.8594 95.5426 59.9314C97.3366 60.3857 99.0915 60.9823 100.791 61.7158C101.062 61.8371 101.274 62.0612 101.38 62.3389C101.486 62.6166 101.478 62.925 101.357 63.1964C101.235 63.4679 101.011 63.68 100.734 63.7861C100.456 63.8923 100.147 63.8838 99.8759 63.7625C96.0449 61.4534 85.1216 59.9239 81.5454 66.4315C79.8361 69.7602 80.6308 75.653 84.0045 84.4696ZM71.7092 96.465C74.3686 92.2703 77.6211 88.4825 81.3655 85.2193C77.8271 82.448 74.8457 79.0316 72.5788 75.1506C68.178 77.9996 63.5823 80.781 59.2564 84.3796C64.9243 85.9465 69.3926 92.0342 71.6792 96.4575L71.7092 96.465ZM43.6774 100.873C48.0557 104.824 55.6728 96.8774 56.1826 100.206C57.4807 100.72 58.7345 101.339 59.9312 102.058C57.832 85.0919 36.6975 92.8439 43.6474 100.866L43.6774 100.873ZM41.4657 93.7511C42.8214 92.1451 44.6128 90.9656 46.6237 90.3549C43.4268 90.1743 40.245 90.9132 37.4547 92.484C38.823 92.8 40.1642 93.2236 41.4657 93.7511Z" fill="#282628"/>
<path d="M92.0266 64.6401C101.023 64.73 104.772 78.7047 93.526 79.147C83.3224 79.5444 80.7584 64.5126 92.0266 64.6401ZM97.3571 75.5484C102.763 68.801 87.2134 62.4734 86.8611 70.9527C90.2948 71.4325 94.5007 73.4492 97.3571 75.5484Z" fill="#282628"/>
<path d="M60.0138 124.789C57.6073 123.747 59.0917 119.084 58.6119 116.01C59.0767 113.011 57.3524 108.715 59.2341 108.018C62.233 108.018 60.1038 121.078 61.1009 123.537C61.1236 123.693 61.1124 123.852 61.0681 124.003C61.0238 124.154 60.9474 124.294 60.8442 124.412C60.7411 124.531 60.6135 124.626 60.4702 124.691C60.3269 124.756 60.1712 124.79 60.0138 124.789Z" fill="#282628"/>
<path d="M104.06 83.2551C106.017 84.5521 109.053 84.2373 110.193 82.6254C110.36 82.3878 110.614 82.2262 110.9 82.1763C111.187 82.1264 111.481 82.1922 111.718 82.3592C111.956 82.5263 112.118 82.7808 112.167 83.0669C112.217 83.3531 112.152 83.6473 111.985 83.8849C107.996 89.5302 98.2497 83.3451 104.06 83.2551Z" fill="#282628"/>
<path d="M109.031 76.4403C107.404 76.8751 107.614 73.5989 106.227 74.0187C104.112 74.2211 105.642 77.9397 103.768 78.2321C100.476 77.25 104.195 71.4247 105.882 71.8445C107.321 71.0124 111.625 74.7909 109.031 76.4403Z" fill="#282628"/>
<path d="M120.096 68.928C130.472 69.108 132.414 84.732 120.606 83.9223C110.679 83.2551 108.835 68.5082 120.096 68.928ZM125.449 80.4137C131.386 73.2014 114.953 66.379 114.578 75.4731C118.199 76.0128 122.66 78.217 125.449 80.4137Z" fill="#282628"/>
</svg>
